<?xml version="1.0" encoding="utf-8"?>
<!-- Generator: Adobe Illustrator 22.0.0, SVG Export Plug-In . SVG Version: 6.00 Build 0)  -->
<svg version="1.1" id="Layer_1" xmlns="http://www.w3.org/2000/svg" xmlns:xlink="http://www.w3.org/1999/xlink" x="0px" y="0px"
	 viewBox="0 0 808.9 600" style="enable-background:new 0 0 808.9 600;" xml:space="preserve">
<style type="text/css">
	.st0{display:none;fill:none;stroke:#000000;stroke-width:15;stroke-miterlimit:10;}
	.st1{display:none;}
	.st2{display:inline;opacity:0.42;fill:none;stroke:url(#SVGID_1_);stroke-miterlimit:10;}
	.st3{display:inline;fill:none;stroke:url(#SVGID_2_);stroke-miterlimit:10;}
	.st4{fill:none;stroke:#000000;stroke-width:3;stroke-miterlimit:10;}
	.st5{fill:#01003A;}
	.st6{fill:#00BBFE;}
	.st7{fill:url(#SVGID_3_);}
	.st8{fill:#0B66BF;}
	.st9{fill:#FFFFFF;}
	.st10{fill:none;stroke:#000000;stroke-width:4;stroke-miterlimit:10;}
	.st11{display:inline;fill:none;stroke:url(#SVGID_4_);stroke-width:3;stroke-miterlimit:10;}
	.st12{display:inline;fill:none;stroke:url(#SVGID_5_);stroke-width:3;stroke-miterlimit:10;}
	.st13{display:inline;fill:none;stroke:url(#SVGID_6_);stroke-width:3;stroke-miterlimit:10;}
	.st14{fill:none;stroke:url(#SVGID_7_);stroke-width:3;stroke-miterlimit:10;}
	.st15{fill:url(#SVGID_8_);}
	.st16{fill:url(#SVGID_9_);}
	.st17{fill:url(#SVGID_10_);}
	.st18{fill:url(#SVGID_11_);}
	.st19{fill:url(#SVGID_12_);}
	.st20{fill:url(#SVGID_13_);}
	.st21{fill:url(#SVGID_14_);}
	.st22{fill:url(#SVGID_15_);}
</style>
<circle class="st0" cx="300" cy="300" r="152.7"/>
<g class="st1">
	<linearGradient id="SVGID_1_" gradientUnits="userSpaceOnUse" x1="106.4805" y1="245.0875" x2="493.5211" y2="245.0875">
		<stop  offset="0" style="stop-color:#00BBFE"/>
		<stop  offset="1" style="stop-color:#0B66BF"/>
	</linearGradient>
	<path class="st2" d="M174.9,427.3c-18.9-22.6-32-43.2-41.5-60.6C96.6,298.8,109,226.8,109,226.8c14.4-92.9,95.8-164.4,192.5-163.7
		c62.7,0.5,118.4,30.9,153.3,77.7l-82.4,55.2c-18.4-22-46.6-35.6-77.9-33.8c-48.1,2.7-86.9,42-88.9,90.2
		c-2.2,53.9,40.8,98.3,94.2,98.3c29.1,0,55.2-13.2,72.5-34c3.9-4.7,7.4-9.9,10.4-15.3h-32.8L300,258.4l45.2-42.7h143.6
		c1.9,8.9,3.2,17.9,3.8,27.2c0,0,3.3,49.8-10.6,88.7c-6.9,22.4-22.1,55.9-55.5,95.8"/>
	<linearGradient id="SVGID_2_" gradientUnits="userSpaceOnUse" x1="204.2708" y1="493.9883" x2="396.9499" y2="493.9883">
		<stop  offset="0" style="stop-color:#00BBFE"/>
		<stop  offset="1" style="stop-color:#0B66BF"/>
	</linearGradient>
	<path class="st3" d="M396.6,459.6c-0.5,0.5-6.8,13.2-72.9,61c-14,10.1-32.9,10.1-46.9,0c-29-21-52.7-41.5-72.3-60.9"/>
</g>
<g>
	<linearGradient id="SVGID_3_" gradientUnits="userSpaceOnUse" x1="84.3957" y1="303.4518" x2="260.7937" y2="303.4518">
		<stop  offset="0" style="stop-color:#00BBFE"/>
		<stop  offset="1" style="stop-color:#0B66BF"/>
	</linearGradient>
	<path class="st7" d="M216.7,378.4c-9,8.9-20,18.2-33.3,27.9c-6.4,4.6-15,4.6-21.4,0c-13.2-9.6-24.1-19-33-27.8l-13.6-14.8
		c-8.6-10.3-14.6-19.7-19-27.7c-16.8-31-11.2-63.9-11.2-63.9c6.6-42.5,43.8-75.1,88-74.8c28.7,0.2,54.1,14.1,70.1,35.5l-37.6,25.2
		c-8.4-10.1-21.3-16.3-35.6-15.5c-22,1.2-39.7,19.2-40.6,41.2c-1,24.6,18.6,44.9,43.1,44.9c13.3,0,25.2-6,33.1-15.5
		c1.8-2.2,3.4-4.5,4.8-7h-15l-22.9-19.6l20.6-19.5h65.6c0.9,4.1,1.5,8.2,1.8,12.4c0,0,1.5,22.8-4.9,40.5
		c-3.2,10.2-10.1,25.5-25.4,43.8L216.7,378.4z"/>
</g>
<g>
	<path class="st8" d="M308.2,369.9c-5.9,0-10.9-1.8-14.9-5.5c-4-3.6-6.1-8.4-6.3-14.2v-49h21v41.3c0.2,2.9,0.9,5.2,2.3,7
		c1.3,1.8,3.5,2.6,6.6,2.6c3.1,0,5.8-1,8-3.2c2.3-2.1,4-5,5.3-8.6c1.2-3.6,1.9-7.8,1.9-12.4v-26.7h21v65.5h-19l-1.7-12l0.3,1.3
		c-1.5,2.7-3.4,5.1-5.7,7.2c-2.3,2.1-5,3.7-8.2,4.9C315.6,369.3,312.1,369.9,308.2,369.9z"/>
	<path class="st8" d="M393.7,301.2l1.7,11.7l-0.3-1c2.3-4.1,5.5-7.4,9.8-10s9.3-3.8,15.5-3.8c6.2,0,11.4,1.8,15.5,5.5
		c4.1,3.7,6.3,8.4,6.4,14.2v49h-21v-41.3c-0.1-2.9-0.9-5.2-2.3-7c-1.5-1.7-3.9-2.6-7.3-2.6c-3.2,0-6,1.1-8.4,3.2
		c-2.4,2.1-4.3,5-5.5,8.5c-1.3,3.6-2,7.8-2,12.5v26.7h-21v-65.5H393.7z"/>
	<path class="st8" d="M463.3,278c0-3.1,1.2-5.6,3.7-7.7c2.4-2,5.1-3,7.9-3c2.8,0,5.4,1,7.7,3c2.3,2,3.5,4.6,3.5,7.7
		c0,3.1-1.2,5.6-3.5,7.6c-2.4,2-4.9,2.9-7.7,2.9c-2.8,0-5.4-1-7.9-2.9C464.5,283.6,463.3,281.1,463.3,278z M463.8,301.2h21v65.5h-21
		V301.2z"/>
	<path class="st8" d="M599.4,355.7c-1.3,1.4-3.4,2.8-6.1,4.3c-2.8,1.5-6,2.8-9.7,4c-3.7,1.2-7.4,2.2-11.2,2.9
		c-3.8,0.8-7.4,1.1-10.8,1.1c-9,0-17.1-1.3-24.3-4c-7.2-2.6-13.4-6.3-18.5-11.1c-5.1-4.7-9-10.4-11.7-16.9c-2.7-6.5-4-13.6-4-21.3
		c0-10.1,1.5-18.9,4.6-26.3c3-7.4,7.2-13.7,12.5-18.6c5.3-4.9,11.3-8.6,18.1-11c6.8-2.4,14-3.6,21.5-3.6c7.1,0,13.6,0.8,19.5,2.3
		c5.9,1.6,10.9,3.5,15,5.8l-7,20.3c-1.8-1-4.2-2-7.2-3c-3-1-6.1-1.8-9.2-2.5c-3.1-0.6-5.8-1-8.3-1c-6,0-11.3,0.8-15.9,2.3
		c-4.6,1.5-8.5,3.8-11.6,6.8c-3.2,3-5.5,6.7-7.1,11.2c-1.6,4.5-2.4,9.6-2.4,15.5c0,5.2,0.9,9.9,2.7,14c1.8,4.2,4.3,7.7,7.6,10.6
		c3.2,2.9,7.1,5.1,11.5,6.6c4.4,1.5,9.4,2.3,14.8,2.3c3.1,0,5.9-0.2,8.6-0.7c2.6-0.4,4.8-1.2,6.6-2.2V330h-19v-21h41.1V355.7z"/>
	<path class="st8" d="M617.4,311.7c0-7.6,1.4-14.8,4.3-21.6c2.9-6.8,6.9-12.8,12.1-18.1c5.1-5.3,11.1-9.4,17.9-12.4
		c6.8-3,14.1-4.5,21.9-4.5c7.7,0,14.9,1.5,21.8,4.5c6.8,3,12.8,7.1,18.1,12.4s9.3,11.3,12.3,18.1c2.9,6.8,4.4,14,4.4,21.6
		c0,7.8-1.5,15.1-4.4,21.9c-3,6.8-7,12.8-12.3,17.9c-5.3,5.2-11.3,9.2-18.1,12.1c-6.8,2.9-14.1,4.4-21.8,4.4
		c-7.8,0-15.1-1.4-21.9-4.4c-6.8-2.9-12.8-6.9-17.9-12.1c-5.2-5.1-9.2-11.1-12.1-17.9C618.8,326.8,617.4,319.5,617.4,311.7z
		 M639.9,311.7c0,4.9,0.9,9.5,2.6,13.7c1.7,4.3,4.2,8,7.3,11.3c3.2,3.3,6.8,5.8,11,7.6c4.1,1.8,8.7,2.7,13.6,2.7
		c4.7,0,9.1-0.9,13.1-2.7s7.6-4.3,10.6-7.6c3-3.2,5.3-7,7-11.3c1.7-4.2,2.5-8.8,2.5-13.7c0-5-0.9-9.6-2.6-14
		c-1.8-4.3-4.2-8.1-7.2-11.3c-3.1-3.2-6.6-5.8-10.7-7.6c-4.1-1.8-8.5-2.7-13.3-2.7c-4.8,0-9.3,0.9-13.4,2.7
		c-4.1,1.8-7.7,4.3-10.8,7.6c-3.1,3.3-5.5,7-7.2,11.3C640.7,302.1,639.9,306.7,639.9,311.7z"/>
</g>
</svg>
