<svg width="33" height="31" viewBox="0 0 33 31" fill="none" xmlns="http://www.w3.org/2000/svg"> <g filter="url(#filter0_d)"> <path d="M16.213 22.9281C14.1915 22.914 12.3419 22.7159 10.6649 21.7329C10.4864 21.6374 10.3151 21.5292 10.1523 21.4089C9.82273 21.1451 9.48471 21.2118 9.1345 21.3423C8.27351 21.6653 7.40501 21.9667 6.47642 22.0267C6.21634 22.0427 5.96752 22.008 5.87363 21.7028C5.78819 21.4211 5.89523 21.2174 6.11869 21.0578C7.59185 19.9996 8.08103 18.4607 8.25003 16.7585C8.33829 15.8618 8.33829 14.9595 8.7824 14.1201C9.04811 13.6159 8.8763 13.3239 8.24159 13.1126C6.99968 12.7129 5.90947 11.9434 5.11686 10.9071C3.53947 8.85651 3.64463 5.91582 5.35816 4.2098C6.37595 3.19295 7.64725 2.7864 9.05657 2.77795C9.56171 2.77795 9.90629 2.608 10.1692 2.16483C11.1954 0.431586 12.7691 -0.182467 14.7089 0.0456901C16.5351 0.259764 17.5688 1.42121 18.1951 3.05023C18.3829 3.55068 18.4514 4.07366 18.5293 4.59851C18.6232 5.24731 18.8476 5.44354 19.4992 5.4088C20.4982 5.34127 21.5015 5.38536 22.4906 5.54025C23.1253 5.64916 23.408 5.40786 23.5629 4.7816C23.6642 4.37178 23.7159 3.95125 23.7169 3.52908C23.7169 3.13755 23.8671 2.86245 24.3056 2.8324C24.7797 2.80048 25.0821 2.99953 25.1581 3.44364C25.2896 4.20886 25.0971 4.93183 24.8192 5.63696C24.5206 6.39467 24.6511 6.71014 25.405 7.02844C25.5367 7.0776 25.6658 7.13338 25.7919 7.19556C26.3552 7.50916 26.3186 7.49414 26.5947 6.86413C26.9214 6.11862 27.2716 5.38814 27.3589 4.56659C27.3974 4.2098 27.3993 3.84738 27.4585 3.49434C27.5524 2.95822 27.7861 2.78827 28.2941 2.8371C28.7636 2.88311 28.9326 3.1 28.9204 3.63894C28.8847 5.2351 28.48 6.7261 27.6059 8.07158C27.3242 8.51005 27.2566 8.92224 27.497 9.42832C28.9729 12.5399 28.326 16.2824 25.9656 18.8222C24.0145 20.9198 21.5602 22.0324 18.8298 22.6408C17.9218 22.8464 17.012 22.9966 16.213 22.9281Z" fill="#003459"/> </g> <g filter="url(#filter1_d)"> <path d="M11.1847 12.1613C9.48812 12.0617 7.86285 11.7491 6.65164 10.398C5.7484 9.38958 5.33434 8.19715 5.56907 6.8545C5.83009 5.35223 7.17274 4.35885 8.91725 4.25369C10.2843 4.17106 11.4326 4.65649 12.3913 5.59071C13.6363 6.80473 14.4278 8.25912 14.5921 10.0205C14.6935 11.1059 14.485 11.4289 13.4457 11.7848C12.7142 12.0191 11.9526 12.1459 11.1847 12.1613Z" fill="white"/> </g> <g filter="url(#filter2_d)"> <path d="M17.9643 7.15519C18.4441 7.17397 18.6272 7.53076 18.7455 7.90633C18.9689 8.61897 19.1689 9.33818 19.444 10.0339C20.5125 12.7399 22.1547 15.0459 24.3029 16.9969C24.9076 17.5462 24.9235 17.7481 24.3508 18.3236C23.2128 19.4626 22.965 19.4635 21.7603 18.4241C18.8891 15.9463 17.0873 12.8206 16.1324 9.17763C16.109 9.08373 16.0846 8.99735 16.0658 8.90534C15.8846 8.00773 15.9878 7.80774 16.8648 7.53358C17.2357 7.41809 17.5455 7.13641 17.9643 7.15519Z" fill="#FDD447"/> </g> <g filter="url(#filter3_d)"> <path d="M14.5165 13.1268C14.8301 13.1015 15.0799 13.4395 15.2939 13.8179C15.7765 14.6732 16.2329 15.5417 16.7906 16.353C17.6897 17.6888 18.7633 18.8985 19.9829 19.95C20.08 20.0284 20.1704 20.1148 20.2533 20.2082C20.4524 20.4448 20.4308 20.6504 20.1134 20.734C19.4064 20.9217 18.6956 21.0983 17.9811 21.2551C17.6835 21.3208 17.4375 21.1527 17.2225 20.9631C15.1517 19.1403 13.5428 16.8525 12.5279 14.2873C12.3251 13.7841 12.434 13.5841 12.9551 13.4292C13.4609 13.2637 13.9855 13.1621 14.5165 13.1268Z" fill="#FDD447"/> </g> <g filter="url(#filter4_d)"> <path d="M26.8048 12.6189C26.846 13.4938 26.7011 14.3675 26.3794 15.1822C26.2555 15.4854 26.1776 15.5624 25.8921 15.3005C23.7758 13.3597 22.2764 11.019 21.314 8.32429C21.1985 8.0013 21.0999 7.66705 21.0098 7.34124C20.9196 7.01544 21.0539 6.8361 21.391 6.89338C22.6726 7.11214 23.8566 7.56095 24.8565 8.42288C25.1382 8.66512 25.1044 8.90173 24.8359 9.12894C24.6208 9.31016 24.3936 9.47822 24.1927 9.67352C23.8556 10.0012 23.8171 10.389 24.0716 10.7251C24.3532 11.0941 24.6809 11.0256 25.0274 10.8425C25.3025 10.6969 25.5598 10.5223 25.8724 10.4378C26.2339 10.3383 26.4461 10.4697 26.5466 10.8134C26.7137 11.4021 26.7653 12.0095 26.8048 12.6189Z" fill="#FCD447"/> </g> <g filter="url(#filter5_d)"> <path d="M14.0565 1.51806C15.7249 1.51337 17.4704 3.47477 17.1887 5.19863C17.108 5.6925 16.8798 6.03145 16.3831 6.17604C16.0389 6.27219 15.7001 6.38659 15.3681 6.51875C15.0968 6.63048 14.9691 6.51875 14.8527 6.29716C14.2316 5.06255 13.2194 4.06818 11.9739 3.46914C11.3092 3.14521 11.2848 2.94991 11.819 2.41567C12.4002 1.83917 13.0762 1.50304 14.0565 1.51806Z" fill="white"/> </g> <g filter="url(#filter6_d)"> <path d="M10.1788 14.8008C11.1365 17.1556 12.3514 19.2297 13.9823 21.0737C12.5373 21.1798 10.943 20.4296 10.2576 19.409C9.2652 17.934 9.4896 16.4317 10.1788 14.8008Z" fill="#FBD347"/> </g> <defs> <filter id="filter0_d" x="0" y="0" width="32.921" height="30.9449" filterUnits="userSpaceOnUse" color-interpolation-filters="sRGB"> <feFlood flood-opacity="0" result="BackgroundImageFix"/> <feColorMatrix in="SourceAlpha" type="matrix" values="0 0 0 0 0 0 0 0 0 0 0 0 0 0 0 0 0 0 127 0"/> <feOffset dy="4"/> <feGaussianBlur stdDeviation="2"/> <feColorMatrix type="matrix" values="0 0 0 0 0 0 0 0 0 0 0 0 0 0 0 0 0 0 0.25 0"/> <feBlend mode="normal" in2="BackgroundImageFix" result="effect1_dropShadow"/> <feBlend mode="normal" in="SourceGraphic" in2="effect1_dropShadow" result="shape"/> </filter> <filter id="filter1_d" x="1.50439" y="4.24463" width="17.1107" height="15.9166" filterUnits="userSpaceOnUse" color-interpolation-filters="sRGB"> <feFlood flood-opacity="0" result="BackgroundImageFix"/> <feColorMatrix in="SourceAlpha" type="matrix" values="0 0 0 0 0 0 0 0 0 0 0 0 0 0 0 0 0 0 127 0"/> <feOffset dy="4"/> <feGaussianBlur stdDeviation="2"/> <feColorMatrix type="matrix" values="0 0 0 0 0 0 0 0 0 0 0 0 0 0 0 0 0 0 0.25 0"/> <feBlend mode="normal" in2="BackgroundImageFix" result="effect1_dropShadow"/> <feBlend mode="normal" in="SourceGraphic" in2="effect1_dropShadow" result="shape"/> </filter> <filter id="filter2_d" x="11.9907" y="7.1543" width="16.778" height="20.0369" filterUnits="userSpaceOnUse" color-interpolation-filters="sRGB"> <feFlood flood-opacity="0" result="BackgroundImageFix"/> <feColorMatrix in="SourceAlpha" type="matrix" values="0 0 0 0 0 0 0 0 0 0 0 0 0 0 0 0 0 0 127 0"/> <feOffset dy="4"/> <feGaussianBlur stdDeviation="2"/> <feColorMatrix type="matrix" values="0 0 0 0 0 0 0 0 0 0 0 0 0 0 0 0 0 0 0.25 0"/> <feBlend mode="normal" in2="BackgroundImageFix" result="effect1_dropShadow"/> <feBlend mode="normal" in="SourceGraphic" in2="effect1_dropShadow" result="shape"/> </filter> <filter id="filter3_d" x="8.43213" y="13.1255" width="15.9497" height="16.1441" filterUnits="userSpaceOnUse" color-interpolation-filters="sRGB"> <feFlood flood-opacity="0" result="BackgroundImageFix"/> <feColorMatrix in="SourceAlpha" type="matrix" values="0 0 0 0 0 0 0 0 0 0 0 0 0 0 0 0 0 0 127 0"/> <feOffset dy="4"/> <feGaussianBlur stdDeviation="2"/> <feColorMatrix type="matrix" values="0 0 0 0 0 0 0 0 0 0 0 0 0 0 0 0 0 0 0.25 0"/> <feBlend mode="normal" in2="BackgroundImageFix" result="effect1_dropShadow"/> <feBlend mode="normal" in="SourceGraphic" in2="effect1_dropShadow" result="shape"/> </filter> <filter id="filter4_d" x="16.9824" y="6.88281" width="13.8292" height="16.5767" filterUnits="userSpaceOnUse" color-interpolation-filters="sRGB"> <feFlood flood-opacity="0" result="BackgroundImageFix"/> <feColorMatrix in="SourceAlpha" type="matrix" values="0 0 0 0 0 0 0 0 0 0 0 0 0 0 0 0 0 0 127 0"/> <feOffset dy="4"/> <feGaussianBlur stdDeviation="2"/> <feColorMatrix type="matrix" values="0 0 0 0 0 0 0 0 0 0 0 0 0 0 0 0 0 0 0.25 0"/> <feBlend mode="normal" in2="BackgroundImageFix" result="effect1_dropShadow"/> <feBlend mode="normal" in="SourceGraphic" in2="effect1_dropShadow" result="shape"/> </filter> <filter id="filter5_d" x="7.44434" y="1.51758" width="13.7745" height="13.045" filterUnits="userSpaceOnUse" color-interpolation-filters="sRGB"> <feFlood flood-opacity="0" result="BackgroundImageFix"/> <feColorMatrix in="SourceAlpha" type="matrix" values="0 0 0 0 0 0 0 0 0 0 0 0 0 0 0 0 0 0 127 0"/> <feOffset dy="4"/> <feGaussianBlur stdDeviation="2"/> <feColorMatrix type="matrix" values="0 0 0 0 0 0 0 0 0 0 0 0 0 0 0 0 0 0 0.25 0"/> <feBlend mode="normal" in2="BackgroundImageFix" result="effect1_dropShadow"/> <feBlend mode="normal" in="SourceGraphic" in2="effect1_dropShadow" result="shape"/> </filter> <filter id="filter6_d" x="5.58643" y="14.8008" width="12.3959" height="14.2829" filterUnits="userSpaceOnUse" color-interpolation-filters="sRGB"> <feFlood flood-opacity="0" result="BackgroundImageFix"/> <feColorMatrix in="SourceAlpha" type="matrix" values="0 0 0 0 0 0 0 0 0 0 0 0 0 0 0 0 0 0 127 0"/> <feOffset dy="4"/> <feGaussianBlur stdDeviation="2"/> <feColorMatrix type="matrix" values="0 0 0 0 0 0 0 0 0 0 0 0 0 0 0 0 0 0 0.25 0"/> <feBlend mode="normal" in2="BackgroundImageFix" result="effect1_dropShadow"/> <feBlend mode="normal" in="SourceGraphic" in2="effect1_dropShadow" result="shape"/> </filter> </defs> </svg>
