<svg width="144" height="23" viewBox="0 0 144 23" fill="none" xmlns="http://www.w3.org/2000/svg"> <g filter="url(#filter0_d)"> <path d="M66.2234 13.5194C64.15 15.5808 58.1962 15.4674 56.4321 13.3185C55.8549 14.3491 54.9256 14.7236 53.8056 14.8335C52.1543 14.9906 50.4899 14.9444 48.8498 14.6961C47.455 14.4917 46.6167 13.7754 46.3779 12.3788C46.3572 12.2973 46.3248 12.2192 46.2817 12.1469C46.2714 12.128 46.2319 12.1212 46.201 12.1074C43.8562 15.0276 40.6508 15.1496 37.3218 14.77C36.9222 14.7153 36.5387 14.5765 36.1967 14.3627C35.8547 14.1489 35.5619 13.865 35.3378 13.5297C34.7846 14.0451 34.2727 14.6377 33.4568 14.7476C31.3955 15.0225 29.3513 15.0362 27.3157 14.5982C26.9415 14.5242 26.5886 14.3673 26.2831 14.139C25.9775 13.9107 25.7269 13.6168 25.5499 13.2789C24.892 14.4058 23.8974 14.7494 22.7241 14.8524C21.1577 15.0143 19.5766 14.9623 18.0243 14.6978C16.2086 14.3646 15.7345 13.8389 15.372 11.9236C14.2744 13.5847 12.706 14.3749 10.8938 14.7219C9.43073 15.0157 7.92611 15.0378 6.45505 14.7872C4.7785 14.4883 3.85948 13.2034 4.01752 11.5199C4.23911 9.17862 4.1893 6.83213 4.13776 4.48737C4.07592 1.70972 5.22512 0.364697 7.96497 0.0554967C9.28055 -0.0912997 10.6119 0.0947605 11.8368 0.596596C13.7264 1.35757 14.8 3.07364 14.7828 5.19681C14.7828 5.57644 14.6471 6.00416 15.2982 6.32195C15.2982 5.29128 15.2793 4.37227 15.2982 3.44639C15.3634 1.3507 16.3477 0.282245 18.4297 0.148258C19.6562 0.0658048 20.8878 0.0451921 22.1177 0.0469099C23.9059 0.0469099 24.4058 0.292551 25.567 1.61868C26.2129 0.490095 27.2659 0.156846 28.4718 0.125926C29.53 0.0984418 30.5881 0.0692419 31.6463 0.0262974C33.2163 -0.0355426 34.6163 0.268501 35.4254 1.76812C37.4523 -0.293212 39.8366 -0.293213 42.2965 0.462609C45.1085 1.3215 45.8059 3.60958 45.732 6.31164C46.2267 6.09864 46.1202 5.84098 46.1306 5.63828C46.1701 4.81031 46.1804 3.9789 46.2267 3.15093C46.3264 1.36273 47.3502 0.285679 49.1281 0.168871C50.4387 0.0829818 51.758 0.0898548 53.079 0.0366037C54.4532 -0.0183652 55.6161 0.380156 56.4303 1.6599C57.1175 0.48494 58.1876 0.153412 59.4038 0.127646C60.7196 0.0984434 62.0355 0.0486273 63.3547 0.0572161C64.674 0.065805 65.7699 0.572548 66.3127 1.85401C66.8281 3.05645 66.5532 4.16099 65.6136 5.05767C65.3009 5.35484 65.4538 5.50773 65.6308 5.75509C66.512 6.99017 66.5137 8.14451 65.5638 9.27137C65.0347 9.89836 65.7991 9.91554 65.9434 10.2058C66.1976 10.7212 66.3694 10.2419 66.5257 10.0839C68.2435 8.35409 70.7618 8.89518 71.5296 11.1626C71.935 12.3651 71.5502 13.5109 70.4715 14.3354C70.0074 14.698 69.4411 14.9055 68.8526 14.9286C68.2642 14.9517 67.6833 14.7893 67.1922 14.4642C66.8177 14.207 66.49 13.8874 66.2234 13.5194Z" fill="#003459"/> </g> <g filter="url(#filter1_d)"> <path d="M99.909 12.2431C99.842 12.451 99.7767 12.6605 99.708 12.8667C99.318 14.0176 98.5691 14.7768 97.3288 14.9143C96.1676 15.0431 95.2898 14.526 94.6405 13.5778C93.7198 12.2311 93.5532 10.6576 93.2989 9.11161C93.2732 8.95529 93.2715 8.79382 93.2508 8.52928C93.0585 8.77936 92.8466 9.01373 92.617 9.23013C92.2236 9.53934 92.3129 9.76264 92.5964 10.1199C93.4793 11.2279 93.4381 12.6468 92.5569 13.7427C91.7169 14.7906 90.1984 15.1908 89.0045 14.5913C88.4892 14.3354 88.1456 14.3543 87.6183 14.6016C85.4556 15.6065 83.1933 14.1842 83.1417 11.8051C83.0971 9.72829 83.1331 7.64978 83.0112 5.54722C82.3241 6.06255 81.8087 6.61396 81.0254 6.80807C80.6338 6.9077 80.7437 7.24953 80.7454 7.51923C80.7454 8.89345 80.8348 10.2677 80.766 11.6419C80.7411 12.2437 80.5584 12.8284 80.2362 13.3374C79.914 13.8463 79.4636 14.2616 78.9303 14.5416C78.397 14.8216 77.7994 14.9564 77.1975 14.9326C76.5956 14.9087 76.0106 14.7271 75.5011 14.4058C74.3227 13.6981 73.943 12.542 73.8949 11.2674C73.8468 9.99283 73.8949 8.74916 73.9173 7.48831C73.9276 7.06058 73.8245 6.85273 73.371 6.69813C71.6927 6.1244 70.8682 4.67974 71.1379 2.93448C71.3801 1.37818 72.6839 0.237569 74.3776 0.16714C76.1212 0.0932758 77.8664 0.0967138 79.61 0.0194139C81.2728 -0.0544506 82.4855 0.588 83.2053 2.12026C84.8423 0.304567 86.8745 -0.343035 89.2175 0.192911C91.5606 0.728858 93.0585 2.29032 93.7988 4.733C94.9308 2.23191 96.5473 0.419657 99.2631 0.0795371C101.979 -0.260583 104.035 1.05523 105.679 3.30896C106.045 1.34382 107.136 0.182605 109.053 0.0537715C110.886 -0.0699085 112.047 0.957318 112.799 2.69056C113.527 1.28885 114.472 0.232419 116.027 0.0468989C117.581 -0.138621 118.808 0.500391 119.722 1.95707C120.581 0.0675113 122.259 0.107022 123.893 0.0589246C124.836 0.0297224 125.782 0.0331573 126.723 0.0314396C128.098 0.0314396 129.147 0.582845 129.798 1.85572C130.212 1.36787 130.532 0.825052 131.09 0.481496C133.167 -0.755303 135.64 0.586283 135.86 3.14062C135.982 4.53374 135.96 5.94231 135.958 7.3423C135.958 7.83358 136.085 8.02941 136.606 8.10843C137.26 8.20679 137.867 8.50673 138.342 8.96645C138.818 9.42617 139.138 10.0228 139.258 10.6731C139.536 12.0336 139.11 13.169 137.99 13.9952C135.738 15.6598 131.623 15.0465 129.917 12.7378C129.386 14.4006 128.106 14.7992 126.581 14.8782C125.181 14.9733 123.775 14.9226 122.386 14.727C120.424 14.4281 119.77 13.6568 119.548 11.6883C119.354 9.95847 119.431 8.2218 119.26 6.44733C118.273 8.41934 117.285 10.3914 116.298 12.3634C115.884 13.1948 115.366 13.9472 114.544 14.4247C112.827 15.4073 110.971 14.9263 109.669 13.169C108.757 11.9374 108.362 10.4532 107.708 9.09443C107.591 8.85051 107.579 8.53615 107.24 8.33517C107.271 9.77123 107.117 11.1403 106.529 12.4252C105.638 14.3646 104.114 15.2578 102.407 14.8095C101.096 14.4659 100.402 13.5074 99.909 12.2431Z" fill="#003459"/> </g> <g filter="url(#filter2_d)"> <path d="M5.50161 7.1604C5.50161 6.07477 5.50161 4.99085 5.50161 3.89663C5.50161 2.57565 6.01694 1.89198 7.29154 1.57075C8.71947 1.21203 10.2277 1.36018 11.5585 1.98989C12.9327 2.61344 13.6198 4.02889 13.3536 5.70544C13.3143 5.86676 13.3145 6.03519 13.3543 6.1964C13.3941 6.3576 13.4722 6.50681 13.582 6.63132C15.5403 9.03621 14.6831 12.0526 11.7303 13.0764C10.1261 13.6121 8.41253 13.7339 6.74872 13.4303C5.70603 13.2585 5.3075 12.6727 5.41744 11.6129C5.55658 10.1322 5.52051 8.64628 5.50161 7.1604Z" fill="#FDD447"/> </g> <g filter="url(#filter3_d)"> <path d="M39.79 1.40596C40.535 1.39626 41.2752 1.5274 41.9716 1.79246C43.6412 2.36792 44.5637 3.88128 44.2562 5.6128C44.1858 6.00445 44.1892 6.28273 44.4675 6.61941C46.3966 8.95044 45.6287 11.9445 42.7995 13.0181C41.1127 13.6537 39.3382 13.7173 37.5655 13.4167C36.6276 13.2586 36.2084 12.666 36.2926 11.7161C36.5073 9.29228 36.4644 6.86506 36.4197 4.43612C36.375 2.33871 37.148 1.5159 39.2764 1.40596C39.4481 1.39737 39.6199 1.40424 39.79 1.40596Z" fill="#FDD447"/> </g> <g filter="url(#filter4_d)"> <path d="M47.5992 7.31453C47.5992 5.97123 47.5734 4.62793 47.5992 3.28635C47.6301 2.11826 48.1145 1.639 49.2603 1.52562C50.6845 1.39594 52.1157 1.36152 53.5444 1.42256C54.6593 1.46207 55.3412 2.08562 55.3206 2.98573C55.3 3.88585 54.5923 4.46131 53.4877 4.49738C53.0875 4.50941 52.6873 4.49738 52.2853 4.49738C51.2649 4.48364 50.9334 4.95602 51.2254 5.95233C51.3251 6.29589 51.5587 6.20829 51.7648 6.19627C52.4502 6.13262 53.1398 6.12686 53.8261 6.17908C54.6129 6.26669 54.9977 6.71675 55.0286 7.47944C55.036 7.64473 55.0102 7.80982 54.9528 7.965C54.8954 8.12017 54.8075 8.26229 54.6943 8.38298C54.5811 8.50368 54.445 8.60051 54.2938 8.66777C54.1426 8.73504 53.9795 8.77137 53.8141 8.77464C53.1597 8.82102 52.5 8.80213 51.8421 8.7901C50.954 8.77293 51.4573 9.4377 51.3732 9.78469C51.289 10.1317 51.2512 10.5388 51.8765 10.4924C52.5625 10.4371 53.2518 10.4371 53.9378 10.4924C54.3284 10.5124 54.6951 10.6863 54.9578 10.9761C55.2205 11.2658 55.3577 11.6478 55.3395 12.0384C55.3309 12.8337 54.8242 13.3079 53.8983 13.4212C52.2226 13.6282 50.5254 13.5818 48.8635 13.2838C48.1953 13.1636 47.862 12.8114 47.7538 12.1724C47.4601 10.5714 47.4807 8.94298 47.5992 7.31453Z" fill="#FDD447"/> </g> <g filter="url(#filter5_d)"> <path d="M26.5033 7.27547C26.5033 6.01805 26.4604 4.75892 26.5136 3.49636C26.5789 2.01735 27.0427 1.56729 28.5045 1.5003C29.8169 1.44018 31.131 1.41098 32.4451 1.41957C33.5634 1.41957 34.2556 2.03281 34.2677 2.92434C34.2797 3.81587 33.5668 4.44629 32.4846 4.48752C31.8851 4.50985 31.2822 4.50641 30.6844 4.47549C30.3047 4.4566 30.2068 4.59746 30.1897 4.96163C30.1261 6.20873 30.1106 6.19843 31.3921 6.14174C31.8504 6.11749 32.3099 6.12955 32.7663 6.17781C33.5204 6.26369 34.0255 6.79964 33.9842 7.47644C33.9396 8.23914 33.4895 8.69607 32.7457 8.76994C32.1174 8.83298 31.4844 8.83298 30.8562 8.76994C30.0368 8.68748 30.267 9.25091 30.2584 9.6563C30.2498 10.0617 30.0866 10.553 30.8338 10.4826C31.4622 10.4252 32.0942 10.4206 32.7234 10.4688C33.6785 10.5375 34.2299 11.1216 34.2436 11.9925C34.2574 12.8634 33.8004 13.3117 32.7852 13.432C31.1661 13.6176 29.5292 13.5795 27.9205 13.3186C27.0444 13.1829 26.7352 12.6796 26.615 11.8911C26.3848 10.3623 26.4793 8.81803 26.5033 7.27547Z" fill="#FDD447"/> </g> <g filter="url(#filter6_d)"> <path d="M57.4077 7.30454C57.4077 6.04712 57.3733 4.78971 57.4077 3.53402C57.4609 2.05329 57.9076 1.58778 59.3642 1.50876C60.7041 1.4349 62.0474 1.41772 63.389 1.42631C64.4918 1.4349 65.1703 2.07219 65.1566 2.98605C65.1446 3.84494 64.4557 4.45131 63.4182 4.49426C62.8459 4.52446 62.2723 4.52102 61.7004 4.48395C61.228 4.44788 60.9274 4.58701 61.0837 5.07315C61.2109 5.47167 60.6698 6.27559 61.7056 6.20173C62.36 6.14906 63.0174 6.14446 63.6724 6.18798C64.4231 6.2481 64.9161 6.80467 64.8749 7.48834C64.8336 8.25619 64.3905 8.70453 63.6381 8.77325C63.0409 8.83766 62.4385 8.83766 61.8413 8.77325C60.9274 8.65644 61.2023 9.27827 61.1542 9.73692C61.082 10.3261 61.2641 10.5529 61.8945 10.4807C62.4914 10.4206 63.0928 10.4206 63.6896 10.4807C64.6103 10.5615 65.1738 11.1987 65.1532 12.0576C65.136 12.8633 64.6687 13.3116 63.7051 13.4319C62.0598 13.6321 60.3939 13.5887 58.7613 13.303C57.9728 13.1656 57.6551 12.7241 57.5331 11.9992C57.2823 10.4549 57.3871 8.87287 57.4077 7.30454Z" fill="#FDD447"/> </g> <g filter="url(#filter7_d)"> <path d="M20.7075 1.41954C21.3946 1.41954 22.0817 1.38862 22.7688 1.41954C23.7497 1.47451 24.4265 2.11696 24.4213 2.92947C24.4213 3.81584 23.7462 4.44626 22.7224 4.48577C22.0955 4.51154 21.4633 4.50467 20.8329 4.47719C20.0513 4.44283 20.3364 5.00798 20.3364 5.36871C20.3364 5.72945 20.1338 6.27913 20.9033 6.20527C21.5888 6.14509 22.2778 6.1359 22.9646 6.17778C23.7153 6.21729 24.0829 6.70686 24.1345 7.41802C24.1572 7.75128 24.047 8.07997 23.8282 8.33231C23.6093 8.58464 23.2995 8.74011 22.9664 8.76475C22.3099 8.81198 21.6508 8.81198 20.9944 8.76475C20.1355 8.71322 20.5082 9.34537 20.4636 9.70782C20.4189 10.0703 20.3055 10.5323 20.9978 10.4774C21.6836 10.4185 22.3733 10.4185 23.0591 10.4774C23.435 10.5049 23.7863 10.6745 24.0416 10.9518C24.2969 11.2291 24.437 11.5932 24.4333 11.9701C24.4437 12.7878 23.9781 13.2756 23.0505 13.4028C21.3761 13.6219 19.678 13.582 18.0157 13.2842C17.2737 13.1571 16.937 12.7689 16.8305 12.0543C16.4766 9.66487 16.5968 7.26514 16.6587 4.8654C16.6707 4.29338 16.6673 3.71964 16.7171 3.14762C16.8081 2.09119 17.2805 1.60163 18.3301 1.50887C19.1271 1.435 19.9276 1.40923 20.735 1.36285L20.7075 1.41954Z" fill="#FDD447"/> </g> <g filter="url(#filter8_d)"> <path d="M68.7089 13.5471C67.9016 13.5591 67.1784 12.7844 67.1818 11.91C67.1818 11.1319 67.9497 10.4139 68.7656 10.4224C69.1678 10.4427 69.5479 10.6124 69.8314 10.8984C70.1149 11.1845 70.2813 11.5661 70.2979 11.9684C70.3202 12.8136 69.5867 13.5471 68.7089 13.5471Z" fill="#FCD347"/> </g> <g filter="url(#filter9_d)"> <path d="M105.864 8.8353C105.923 10.1001 105.609 11.3542 104.963 12.4426C104.514 13.1744 103.872 13.6451 102.982 13.5231C102.092 13.4012 101.591 12.7793 101.493 11.8861C101.407 11.0942 100.958 10.8039 100.211 10.8554C99.8127 10.8846 99.4125 10.9293 99.0088 10.9224C98.5845 10.9224 98.4557 11.1148 98.4934 11.5013C98.507 11.6731 98.5024 11.8458 98.4797 12.0166C98.399 12.7158 98.1361 13.2843 97.3923 13.5059C96.6176 13.7378 96.1263 13.2981 95.7381 12.7398C95.0648 11.7727 94.9256 10.6149 94.747 9.49492C94.4464 7.60537 94.6559 5.79312 95.6711 4.12515C97.8561 0.535 102.212 0.504083 104.482 4.05816C105.407 5.47772 105.889 7.14088 105.864 8.8353Z" fill="#FDD447"/> </g> <g filter="url(#filter10_d)"> <path d="M112.713 5.90302C113.388 4.65248 113.943 3.52389 114.593 2.45028C115.096 1.6206 115.922 1.29078 116.879 1.42992C117.784 1.56219 118.365 2.1428 118.64 2.99138C118.837 3.63043 118.775 4.32125 118.468 4.9153C117.291 7.32018 116.133 9.75255 114.861 12.1145C113.852 13.9903 112.024 14.035 110.738 12.3069C110.068 11.3999 109.736 10.3263 109.303 9.30249C108.635 7.72901 107.929 6.16584 107.294 4.58205C106.924 3.67334 106.972 2.77323 107.718 2.04489C108.006 1.74119 108.379 1.53161 108.788 1.44364C109.198 1.35566 109.624 1.3934 110.011 1.55189C110.796 1.83704 111.205 2.48292 111.519 3.21126C111.904 4.06843 112.284 4.92388 112.713 5.90302Z" fill="#FDD447"/> </g> <g filter="url(#filter11_d)"> <path d="M89.9803 9.55315C90.3084 10.0462 90.8186 10.2798 91.2068 10.6474C91.9163 11.3139 92.052 12.0611 91.5641 12.7774C91.0763 13.4937 90.1658 13.6947 89.3568 13.2738C89.1985 13.2078 89.0536 13.1135 88.9291 12.9956C88.4 12.3634 87.9946 12.2896 87.4518 13.0574C87.0429 13.6329 86.3249 13.6707 85.6464 13.4405C84.9679 13.2103 84.535 12.7207 84.5264 11.9855C84.4972 9.26971 84.3838 6.55734 84.2103 3.84669C84.1691 3.20768 84.48 2.6975 84.9885 2.30069C86.3867 1.22021 88.534 1.09825 90.1693 2.01554C90.9554 2.43753 91.5947 3.0885 92.0025 3.88215C92.4102 4.67579 92.567 5.5746 92.4522 6.45943C92.3234 7.58973 91.6964 8.40395 90.7946 9.0361C90.5386 9.2199 90.2655 9.3745 89.9803 9.55315Z" fill="#FDD447"/> </g> <g filter="url(#filter12_d)"> <path d="M120.768 6.33249C120.799 5.64538 120.832 4.36563 120.926 3.08245C121 2.09301 121.45 1.64295 122.434 1.53645C123.944 1.3922 125.463 1.35604 126.978 1.42824C127.933 1.46946 128.63 2.14111 128.639 2.94846C128.639 3.80735 127.952 4.45667 126.921 4.49446C126.292 4.51679 125.66 4.51851 125.032 4.48072C124.293 4.43778 124.535 4.98403 124.564 5.3001C124.594 5.61617 124.221 6.24317 125.037 6.20709C125.693 6.16246 126.35 6.15386 127.007 6.18132C127.866 6.23973 128.328 6.71555 128.331 7.45763C128.335 8.19971 127.816 8.73737 126.957 8.78719C126.357 8.82154 125.755 8.82154 125.155 8.78719C124.296 8.73909 124.678 9.37467 124.621 9.74227C124.557 10.1511 124.551 10.5462 125.198 10.4929C125.854 10.4397 126.513 10.4397 127.169 10.4929C128.027 10.5651 128.641 11.2281 128.634 11.9977C128.634 12.836 128.108 13.3153 127.151 13.4441C125.7 13.6124 124.234 13.6055 122.785 13.4235C121.352 13.2672 121.086 12.9477 120.923 11.479C120.749 9.96387 120.79 8.44879 120.768 6.33249Z" fill="#FDD447"/> </g> <g filter="url(#filter13_d)"> <path d="M77.4835 1.40565C78.2719 1.40565 79.1875 1.38675 80.1031 1.40565C81.2609 1.43485 82.0579 2.27999 82.0734 3.45323C82.0871 4.56635 81.2265 5.55235 80.1357 5.53346C79.4744 5.52315 79.3129 5.72414 79.337 6.35628C79.3988 8.07406 79.4452 9.79184 79.4022 11.5096C79.3627 13.0934 77.8219 13.9987 76.4047 13.3305C75.4651 12.8873 75.2778 12.0095 75.2641 11.0973C75.2418 9.49637 75.2641 7.89369 75.2916 6.28757C75.3036 5.77223 75.2143 5.54549 74.6045 5.52659C73.2303 5.48536 72.471 4.73985 72.4744 3.58035C72.4744 2.34355 73.244 1.60147 74.6079 1.52761C75.5269 1.48294 76.4425 1.45031 77.4835 1.40565Z" fill="#FDD447"/> </g> <g filter="url(#filter14_d)"> <path d="M134.792 13.5709C132.531 13.5709 131.312 12.9371 130.936 11.5302C130.527 9.99965 130.554 8.41586 130.625 6.84237C130.676 5.67256 130.726 4.49761 130.882 3.33983C131.054 2.01027 131.822 1.33003 132.859 1.40905C133.792 1.47947 134.483 2.32462 134.533 3.57001C134.598 5.22595 134.653 6.88532 134.622 8.54297C134.606 9.29021 134.856 9.44137 135.548 9.41389C136.982 9.3572 137.817 10.0117 137.953 11.1712C138.075 12.2671 137.348 13.1483 136.063 13.418C135.642 13.4911 135.218 13.5421 134.792 13.5709Z" fill="#FDD447"/> </g> <path d="M9.87522 3.35216C10.5623 3.34013 11.0382 3.77645 11.0347 4.42921C11.0383 4.73044 10.9258 5.02148 10.7204 5.24189C10.515 5.46229 10.2326 5.59511 9.93191 5.61275C9.77545 5.62315 9.61854 5.60118 9.47095 5.5482C9.32337 5.49523 9.1883 5.41239 9.07417 5.30487C8.96004 5.19735 8.8693 5.06745 8.80763 4.92328C8.74596 4.77912 8.71467 4.6238 8.71572 4.467C8.71726 4.31725 8.74863 4.1693 8.808 4.03181C8.86737 3.89432 8.95356 3.77004 9.06151 3.66624C9.16947 3.56244 9.29703 3.48121 9.43675 3.42728C9.57646 3.37335 9.72553 3.34781 9.87522 3.35216Z" fill="#023559"/> <path d="M11.0431 9.71829C11.0533 10.0193 10.9485 10.3128 10.75 10.5394C10.5516 10.7659 10.2743 10.9084 9.97462 10.9379C9.81801 10.952 9.66016 10.934 9.51076 10.8849C9.36137 10.8359 9.22357 10.7568 9.10583 10.6525C8.98809 10.5483 8.89288 10.4211 8.82606 10.2788C8.75923 10.1364 8.72219 9.98196 8.71721 9.82479C8.71517 9.6753 8.74262 9.52689 8.79799 9.38802C8.85337 9.24916 8.93558 9.12258 9.03992 9.01552C9.14427 8.90846 9.2687 8.82303 9.40609 8.76411C9.54349 8.70519 9.69115 8.67395 9.84063 8.67215C10.5277 8.64982 11.0207 9.08099 11.0431 9.71829Z" fill="#043658"/> <path d="M40.8482 8.6702C41.379 8.74921 41.8892 8.94848 41.9339 9.66822C41.9529 9.98198 41.8483 10.2907 41.6425 10.5283C41.4367 10.7659 41.1461 10.9135 40.8328 10.9394C40.677 10.9463 40.5215 10.922 40.3752 10.8679C40.229 10.8138 40.0951 10.7311 39.9813 10.6245C39.8675 10.5179 39.7762 10.3896 39.7126 10.2473C39.6491 10.1049 39.6147 9.95121 39.6115 9.79534C39.62 9.18725 40.1457 8.67879 40.8482 8.6702Z" fill="#043658"/> <path d="M40.8465 3.34491C41.3773 3.42221 41.8875 3.62147 41.9339 4.34122C41.9561 4.65563 41.853 4.96605 41.6469 5.20458C41.4409 5.44312 41.1488 5.59036 40.8345 5.6141C40.6787 5.62147 40.523 5.59757 40.3766 5.54379C40.2301 5.49001 40.096 5.40744 39.982 5.30097C39.868 5.1945 39.7765 5.06628 39.7128 4.92386C39.6492 4.78145 39.6147 4.62773 39.6115 4.47178C39.6183 3.8654 40.144 3.35522 40.8465 3.34491Z" fill="#043658"/> <path d="M101.034 7.31995C101.037 7.62203 100.92 7.91291 100.709 8.12892C100.497 8.34494 100.209 8.46851 99.9072 8.47258C99.2459 8.47258 98.7684 7.94522 98.789 7.23578C98.8096 6.52634 99.1669 6.16904 99.8403 6.13984C99.9971 6.13541 100.153 6.1628 100.299 6.22036C100.445 6.27792 100.578 6.36445 100.689 6.47474C100.801 6.58503 100.889 6.71679 100.948 6.86206C101.008 7.00733 101.037 7.16309 101.034 7.31995Z" fill="#033658"/> <path d="M90.0232 5.47348C90.0232 6.1606 89.4718 6.74121 88.8809 6.72059C88.2161 6.69654 87.8365 6.3152 87.7884 5.65042C87.7802 5.50066 87.8037 5.35084 87.8573 5.21079C87.911 5.07073 87.9937 4.9436 88.0999 4.83771C88.2061 4.73181 88.3335 4.64954 88.4737 4.5963C88.6139 4.54305 88.7638 4.52001 88.9136 4.52871C89.5766 4.54588 89.9597 4.89975 90.0232 5.47348Z" fill="#033658"/> <defs> <filter id="filter0_d" x="0" y="0" width="75.6873" height="23" filterUnits="userSpaceOnUse" color-interpolation-filters="sRGB"> <feFlood flood-opacity="0" result="BackgroundImageFix"/> <feColorMatrix in="SourceAlpha" type="matrix" values="0 0 0 0 0 0 0 0 0 0 0 0 0 0 0 0 0 0 127 0"/> <feOffset dy="4"/> <feGaussianBlur stdDeviation="2"/> <feColorMatrix type="matrix" values="0 0 0 0 0 0 0 0 0 0 0 0 0 0 0 0 0 0 0.25 0"/> <feBlend mode="normal" in2="BackgroundImageFix" result="effect1_dropShadow"/> <feBlend mode="normal" in="SourceGraphic" in2="effect1_dropShadow" result="shape"/> </filter> <filter id="filter1_d" x="67.0876" y="0.0107117" width="76.253" height="22.9274" filterUnits="userSpaceOnUse" color-interpolation-filters="sRGB"> <feFlood flood-opacity="0" result="BackgroundImageFix"/> <feColorMatrix in="SourceAlpha" type="matrix" values="0 0 0 0 0 0 0 0 0 0 0 0 0 0 0 0 0 0 127 0"/> <feOffset dy="4"/> <feGaussianBlur stdDeviation="2"/> <feColorMatrix type="matrix" values="0 0 0 0 0 0 0 0 0 0 0 0 0 0 0 0 0 0 0.25 0"/> <feBlend mode="normal" in2="BackgroundImageFix" result="effect1_dropShadow"/> <feBlend mode="normal" in="SourceGraphic" in2="effect1_dropShadow" result="shape"/> </filter> <filter id="filter2_d" x="1.39978" y="1.37921" width="17.2363" height="20.2141" filterUnits="userSpaceOnUse" color-interpolation-filters="sRGB"> <feFlood flood-opacity="0" result="BackgroundImageFix"/> <feColorMatrix in="SourceAlpha" type="matrix" values="0 0 0 0 0 0 0 0 0 0 0 0 0 0 0 0 0 0 127 0"/> <feOffset dy="4"/> <feGaussianBlur stdDeviation="2"/> <feColorMatrix type="matrix" values="0 0 0 0 0 0 0 0 0 0 0 0 0 0 0 0 0 0 0.25 0"/> <feBlend mode="normal" in2="BackgroundImageFix" result="effect1_dropShadow"/> <feBlend mode="normal" in="SourceGraphic" in2="effect1_dropShadow" result="shape"/> </filter> <filter id="filter3_d" x="32.282" y="1.40173" width="17.2514" height="20.1885" filterUnits="userSpaceOnUse" color-interpolation-filters="sRGB"> <feFlood flood-opacity="0" result="BackgroundImageFix"/> <feColorMatrix in="SourceAlpha" type="matrix" values="0 0 0 0 0 0 0 0 0 0 0 0 0 0 0 0 0 0 127 0"/> <feOffset dy="4"/> <feGaussianBlur stdDeviation="2"/> <feColorMatrix type="matrix" values="0 0 0 0 0 0 0 0 0 0 0 0 0 0 0 0 0 0 0.25 0"/> <feBlend mode="normal" in2="BackgroundImageFix" result="effect1_dropShadow"/> <feBlend mode="normal" in="SourceGraphic" in2="effect1_dropShadow" result="shape"/> </filter> <filter id="filter4_d" x="43.5177" y="1.39328" width="15.8234" height="20.1549" filterUnits="userSpaceOnUse" color-interpolation-filters="sRGB"> <feFlood flood-opacity="0" result="BackgroundImageFix"/> <feColorMatrix in="SourceAlpha" type="matrix" values="0 0 0 0 0 0 0 0 0 0 0 0 0 0 0 0 0 0 127 0"/> <feOffset dy="4"/> <feGaussianBlur stdDeviation="2"/> <feColorMatrix type="matrix" values="0 0 0 0 0 0 0 0 0 0 0 0 0 0 0 0 0 0 0.25 0"/> <feBlend mode="normal" in2="BackgroundImageFix" result="effect1_dropShadow"/> <feBlend mode="normal" in="SourceGraphic" in2="effect1_dropShadow" result="shape"/> </filter> <filter id="filter5_d" x="22.4637" y="1.41809" width="15.8041" height="20.1295" filterUnits="userSpaceOnUse" color-interpolation-filters="sRGB"> <feFlood flood-opacity="0" result="BackgroundImageFix"/> <feColorMatrix in="SourceAlpha" type="matrix" values="0 0 0 0 0 0 0 0 0 0 0 0 0 0 0 0 0 0 127 0"/> <feOffset dy="4"/> <feGaussianBlur stdDeviation="2"/> <feColorMatrix type="matrix" values="0 0 0 0 0 0 0 0 0 0 0 0 0 0 0 0 0 0 0.25 0"/> <feBlend mode="normal" in2="BackgroundImageFix" result="effect1_dropShadow"/> <feBlend mode="normal" in="SourceGraphic" in2="effect1_dropShadow" result="shape"/> </filter> <filter id="filter6_d" x="53.3685" y="1.42429" width="15.7883" height="20.1311" filterUnits="userSpaceOnUse" color-interpolation-filters="sRGB"> <feFlood flood-opacity="0" result="BackgroundImageFix"/> <feColorMatrix in="SourceAlpha" type="matrix" values="0 0 0 0 0 0 0 0 0 0 0 0 0 0 0 0 0 0 127 0"/> <feOffset dy="4"/> <feGaussianBlur stdDeviation="2"/> <feColorMatrix type="matrix" values="0 0 0 0 0 0 0 0 0 0 0 0 0 0 0 0 0 0 0.25 0"/> <feBlend mode="normal" in2="BackgroundImageFix" result="effect1_dropShadow"/> <feBlend mode="normal" in="SourceGraphic" in2="effect1_dropShadow" result="shape"/> </filter> <filter id="filter7_d" x="12.5881" y="1.36285" width="15.8454" height="20.179" filterUnits="userSpaceOnUse" color-interpolation-filters="sRGB"> <feFlood flood-opacity="0" result="BackgroundImageFix"/> <feColorMatrix in="SourceAlpha" type="matrix" values="0 0 0 0 0 0 0 0 0 0 0 0 0 0 0 0 0 0 127 0"/> <feOffset dy="4"/> <feGaussianBlur stdDeviation="2"/> <feColorMatrix type="matrix" values="0 0 0 0 0 0 0 0 0 0 0 0 0 0 0 0 0 0 0.25 0"/> <feBlend mode="normal" in2="BackgroundImageFix" result="effect1_dropShadow"/> <feBlend mode="normal" in="SourceGraphic" in2="effect1_dropShadow" result="shape"/> </filter> <filter id="filter8_d" x="63.1818" y="10.4224" width="11.1166" height="11.1249" filterUnits="userSpaceOnUse" color-interpolation-filters="sRGB"> <feFlood flood-opacity="0" result="BackgroundImageFix"/> <feColorMatrix in="SourceAlpha" type="matrix" values="0 0 0 0 0 0 0 0 0 0 0 0 0 0 0 0 0 0 127 0"/> <feOffset dy="4"/> <feGaussianBlur stdDeviation="2"/> <feColorMatrix type="matrix" values="0 0 0 0 0 0 0 0 0 0 0 0 0 0 0 0 0 0 0.25 0"/> <feBlend mode="normal" in2="BackgroundImageFix" result="effect1_dropShadow"/> <feBlend mode="normal" in="SourceGraphic" in2="effect1_dropShadow" result="shape"/> </filter> <filter id="filter9_d" x="90.6208" y="1.41245" width="19.2505" height="20.1567" filterUnits="userSpaceOnUse" color-interpolation-filters="sRGB"> <feFlood flood-opacity="0" result="BackgroundImageFix"/> <feColorMatrix in="SourceAlpha" type="matrix" values="0 0 0 0 0 0 0 0 0 0 0 0 0 0 0 0 0 0 127 0"/> <feOffset dy="4"/> <feGaussianBlur stdDeviation="2"/> <feColorMatrix type="matrix" values="0 0 0 0 0 0 0 0 0 0 0 0 0 0 0 0 0 0 0.25 0"/> <feBlend mode="normal" in2="BackgroundImageFix" result="effect1_dropShadow"/> <feBlend mode="normal" in="SourceGraphic" in2="effect1_dropShadow" result="shape"/> </filter> <filter id="filter10_d" x="103.069" y="1.39725" width="19.6842" height="20.1664" filterUnits="userSpaceOnUse" color-interpolation-filters="sRGB"> <feFlood flood-opacity="0" result="BackgroundImageFix"/> <feColorMatrix in="SourceAlpha" type="matrix" values="0 0 0 0 0 0 0 0 0 0 0 0 0 0 0 0 0 0 127 0"/> <feOffset dy="4"/> <feGaussianBlur stdDeviation="2"/> <feColorMatrix type="matrix" values="0 0 0 0 0 0 0 0 0 0 0 0 0 0 0 0 0 0 0.25 0"/> <feBlend mode="normal" in2="BackgroundImageFix" result="effect1_dropShadow"/> <feBlend mode="normal" in="SourceGraphic" in2="effect1_dropShadow" result="shape"/> </filter> <filter id="filter11_d" x="80.2067" y="1.40118" width="16.2821" height="20.1711" filterUnits="userSpaceOnUse" color-interpolation-filters="sRGB"> <feFlood flood-opacity="0" result="BackgroundImageFix"/> <feColorMatrix in="SourceAlpha" type="matrix" values="0 0 0 0 0 0 0 0 0 0 0 0 0 0 0 0 0 0 127 0"/> <feOffset dy="4"/> <feGaussianBlur stdDeviation="2"/> <feColorMatrix type="matrix" values="0 0 0 0 0 0 0 0 0 0 0 0 0 0 0 0 0 0 0.25 0"/> <feBlend mode="normal" in2="BackgroundImageFix" result="effect1_dropShadow"/> <feBlend mode="normal" in="SourceGraphic" in2="effect1_dropShadow" result="shape"/> </filter> <filter id="filter12_d" x="116.768" y="1.39215" width="15.8709" height="20.1732" filterUnits="userSpaceOnUse" color-interpolation-filters="sRGB"> <feFlood flood-opacity="0" result="BackgroundImageFix"/> <feColorMatrix in="SourceAlpha" type="matrix" values="0 0 0 0 0 0 0 0 0 0 0 0 0 0 0 0 0 0 127 0"/> <feOffset dy="4"/> <feGaussianBlur stdDeviation="2"/> <feColorMatrix type="matrix" values="0 0 0 0 0 0 0 0 0 0 0 0 0 0 0 0 0 0 0.25 0"/> <feBlend mode="normal" in2="BackgroundImageFix" result="effect1_dropShadow"/> <feBlend mode="normal" in="SourceGraphic" in2="effect1_dropShadow" result="shape"/> </filter> <filter id="filter13_d" x="68.4744" y="1.39725" width="17.5991" height="20.1555" filterUnits="userSpaceOnUse" color-interpolation-filters="sRGB"> <feFlood flood-opacity="0" result="BackgroundImageFix"/> <feColorMatrix in="SourceAlpha" type="matrix" values="0 0 0 0 0 0 0 0 0 0 0 0 0 0 0 0 0 0 127 0"/> <feOffset dy="4"/> <feGaussianBlur stdDeviation="2"/> <feColorMatrix type="matrix" values="0 0 0 0 0 0 0 0 0 0 0 0 0 0 0 0 0 0 0.25 0"/> <feBlend mode="normal" in2="BackgroundImageFix" result="effect1_dropShadow"/> <feBlend mode="normal" in="SourceGraphic" in2="effect1_dropShadow" result="shape"/> </filter> <filter id="filter14_d" x="126.583" y="1.40286" width="15.3829" height="20.1681" filterUnits="userSpaceOnUse" color-interpolation-filters="sRGB"> <feFlood flood-opacity="0" result="BackgroundImageFix"/> <feColorMatrix in="SourceAlpha" type="matrix" values="0 0 0 0 0 0 0 0 0 0 0 0 0 0 0 0 0 0 127 0"/> <feOffset dy="4"/> <feGaussianBlur stdDeviation="2"/> <feColorMatrix type="matrix" values="0 0 0 0 0 0 0 0 0 0 0 0 0 0 0 0 0 0 0.25 0"/> <feBlend mode="normal" in2="BackgroundImageFix" result="effect1_dropShadow"/> <feBlend mode="normal" in="SourceGraphic" in2="effect1_dropShadow" result="shape"/> </filter> </defs> </svg>
